<svg data-v-423bf9ae="" xmlns="http://www.w3.org/2000/svg" viewBox="0 0 399 90" class="iconLeftSlogan"><!----><!----><!----><g data-v-423bf9ae="" id="cc2fc492-0289-4d00-8d7f-2dbde52a7917" fill="white" transform="matrix(5.714285714285714,0,0,5.714285714285714,105.20000622953688,-41.37142726353237)"><path d="M2.47 8.61L2.47 11.53L4.16 11.53Q4.85 11.53 5.35 10.99L5.35 10.99Q5.75 10.58 5.75 9.91L5.75 9.91Q5.75 8.61 4.16 8.61L4.16 8.61L2.47 8.61ZM2.47 12.93L2.47 16.22L4.22 16.22Q5.18 16.22 5.58 15.77L5.58 15.77Q5.91 15.39 5.91 14.66L5.91 14.66Q5.91 14.05 5.46 13.51L5.46 13.51Q4.97 12.93 4.22 12.93L4.22 12.93L2.47 12.93ZM4.22 17.60L0.84 17.60L0.84 7.24L4.17 7.24Q5.63 7.24 6.45 7.96L6.45 7.96Q7.23 8.65 7.23 9.71L7.23 9.71Q7.23 11.47 5.96 11.96L5.96 11.96Q5.74 12.04 5.45 12.11L5.45 12.11Q6.31 12.28 6.87 12.94L6.87 12.94Q7.46 13.64 7.46 14.79L7.46 14.79Q7.46 16.41 6.44 17.09L6.44 17.09Q5.65 17.60 4.22 17.60L4.22 17.60ZM9.79 15.74L9.79 15.74Q9.79 16.14 9.99 16.32Q10.19 16.50 10.48 16.50Q10.77 16.50 10.92 16.47Q11.07 16.43 11.21 16.37L11.21 16.37L11.46 16.24Q11.57 16.17 11.71 16.06L11.71 16.06L11.91 15.91Q11.96 15.86 12.09 15.75L12.09 15.75L12.21 15.63L12.21 13.95Q10.68 14.30 10.21 14.71L10.21 14.71Q9.79 15.08 9.79 15.74ZM13.88 17.60L12.41 17.60Q12.21 17.47 12.21 16.96L12.21 16.96L12.08 17.11Q11.49 17.74 10.40 17.74L10.40 17.74Q9.07 17.74 8.58 16.80L8.58 16.80Q8.33 16.34 8.33 15.73Q8.33 15.12 8.54 14.65Q8.76 14.17 9.24 13.81L9.24 13.81Q10.12 13.15 12.21 12.74L12.21 12.74Q12.21 12.25 12.18 12.14Q12.15 12.03 12.11 11.94Q12.07 11.84 12.02 11.79Q11.96 11.74 11.88 11.68Q11.80 11.61 11.69 11.59L11.69 11.59Q11.42 11.52 11.10 11.52Q10.77 11.52 10.49 11.62Q10.21 11.72 10.04 11.84Q9.87 11.96 9.73 12.13L9.73 12.13Q9.56 12.35 9.48 12.51L9.48 12.51L8.52 11.92Q8.83 11.30 9.04 11.09Q9.26 10.88 9.47 10.73Q9.69 10.58 9.93 10.49L9.93 10.49Q10.50 10.28 11.09 10.28Q11.69 10.28 12.04 10.35Q12.39 10.41 12.71 10.58Q13.03 10.75 13.23 11.03L13.23 11.03Q13.67 11.63 13.67 12.80L13.67 12.80L13.67 16.58Q13.67 16.77 13.74 17.12Q13.82 17.47 13.88 17.60L13.88 17.60ZM14.67 14.04L14.67 14.04Q14.67 11.89 15.61 10.99L15.61 10.99Q16.34 10.26 17.67 10.26Q19.00 10.26 19.76 11.38L19.76 11.38Q20.00 11.74 20.10 12.06L20.10 12.06L18.86 12.61Q18.81 12.04 18.40 11.72L18.40 11.72Q18.13 11.50 17.73 11.50L17.73 11.50Q16.13 11.50 16.13 13.98L16.13 13.98Q16.13 15.20 16.55 15.84Q16.97 16.48 17.77 16.48L17.77 16.48Q18.33 16.48 18.68 16.07L18.68 16.07Q18.98 15.72 19.11 15.31L19.11 15.31L20.23 15.80Q20.08 16.41 19.56 16.96L19.56 16.96Q18.85 17.72 17.73 17.72L17.73 17.72Q14.67 17.72 14.67 14.04ZM22.98 17.60L21.52 17.60L21.52 7.24L22.98 7.24L22.98 13.07L25.06 10.38L26.84 10.38L24.75 13.05L26.96 17.60L25.31 17.60L23.73 14.34L22.98 15.29L22.98 17.60ZM31.61 15.65L31.61 12.20Q30.93 11.50 30.13 11.50L30.13 11.50Q29.30 11.50 28.94 12.22L28.94 12.22Q28.62 12.84 28.62 14.10L28.62 14.10Q28.62 15.49 29.07 16.02L29.07 16.02Q29.45 16.48 30.20 16.48L30.20 16.48Q30.99 16.48 31.51 15.78L31.51 15.78Q31.60 15.65 31.61 15.65L31.61 15.65ZM33.07 7.24L33.07 16.62Q33.07 17.10 33.26 17.60L33.26 17.60L31.72 17.60Q31.70 17.56 31.68 17.50L31.68 17.50L31.61 17.06Q31.09 17.72 30.09 17.72L30.09 17.72Q28.37 17.72 27.59 16.13L27.59 16.13Q27.15 15.24 27.15 14.12L27.15 14.12Q27.15 11.52 28.44 10.70L28.44 10.70Q29.12 10.26 30.19 10.26L30.19 10.26Q30.71 10.26 31.10 10.47Q31.49 10.68 31.61 10.86L31.61 10.86L31.61 7.24L33.07 7.24ZM35.44 13.16L35.44 13.16Q35.40 13.52 35.40 13.94Q35.40 14.36 35.44 14.69Q35.49 15.03 35.59 15.36Q35.70 15.70 35.86 15.94L35.86 15.94Q36.23 16.49 36.90 16.49L36.90 16.49Q38.38 16.49 38.38 13.99L38.38 13.99Q38.38 12.53 37.95 11.96L37.95 11.96Q37.59 11.50 36.90 11.50L36.90 11.50Q35.64 11.50 35.44 13.16ZM33.94 13.99L33.94 13.99Q33.94 12.28 34.73 11.27Q35.52 10.26 36.90 10.26L36.90 10.26Q37.82 10.26 38.49 10.73L38.49 10.73Q39.85 11.68 39.85 13.99L39.85 13.99Q39.85 16.88 38.04 17.54L38.04 17.54Q37.54 17.73 36.90 17.73Q36.26 17.73 35.76 17.54Q35.25 17.36 34.92 17.03Q34.58 16.70 34.36 16.22L34.36 16.22Q33.94 15.33 33.94 13.99ZM42.16 13.16L42.16 13.16Q42.12 13.52 42.12 13.94Q42.12 14.36 42.16 14.69Q42.20 15.03 42.30 15.36Q42.41 15.70 42.57 15.94L42.57 15.94Q42.94 16.49 43.61 16.49L43.61 16.49Q45.10 16.49 45.10 13.99L45.10 13.99Q45.10 12.53 44.66 11.96L44.66 11.96Q44.30 11.50 43.61 11.50L43.61 11.50Q42.35 11.50 42.16 13.16ZM40.65 13.99L40.65 13.99Q40.65 12.28 41.44 11.27Q42.23 10.26 43.61 10.26L43.61 10.26Q44.53 10.26 45.20 10.73L45.20 10.73Q46.56 11.68 46.56 13.99L46.56 13.99Q46.56 16.88 44.75 17.54L44.75 17.54Q44.26 17.73 43.62 17.73Q42.98 17.73 42.47 17.54Q41.97 17.36 41.63 17.03Q41.30 16.70 41.07 16.22L41.07 16.22Q40.65 15.33 40.65 13.99ZM49.18 17.60L47.71 17.60L47.71 10.38L49.18 10.38L49.18 11.38Q49.21 11.34 49.30 11.20L49.30 11.20L49.46 10.95Q49.97 10.26 51.13 10.26L51.13 10.26Q51.26 10.26 51.38 10.28L51.38 10.28L51.38 11.50Q50.13 11.53 49.59 12.20L49.59 12.20Q49.34 12.50 49.18 12.97L49.18 12.97L49.18 17.60Z"></path></g><!----><g data-v-423bf9ae="" id="7d218d8e-eb85-4c26-8e37-69cfbff45e79" transform="matrix(2.8125,0,0,2.8125,0,0)" stroke="none" fill="white"><path d="M9.571 20.464l8.064 4.47 8.065-4.47v-8.939l-8.065-4.469-8.064 4.469z"></path><path d="M32 0H0v32h32l-5.054-5.172H5.054V5.172h21.892z"></path></g><!----><g data-v-423bf9ae="" id="b051165a-16fe-40de-a7bf-22e72b795325" fill="white" transform="matrix(0.4426222955184368,0,0,0.4426222955184368,109.37590106243213,57.906395791765846)"><path d="M10.54 5.74L10.54 5.74Q10.58 5.98 10.61 6.07Q10.63 6.16 10.63 6.31L10.63 6.31Q10.63 6.78 10.42 7.18Q10.22 7.57 9.87 7.74L9.87 7.74Q9.59 7.36 9.18 7.09Q8.78 6.82 8.29 6.64Q7.81 6.47 7.29 6.38Q6.78 6.30 6.29 6.30L6.29 6.30Q5.80 6.30 5.37 6.38Q4.94 6.45 4.61 6.59Q4.28 6.72 4.09 6.92Q3.91 7.11 3.91 7.36L3.91 7.36Q3.95 7.67 4.28 7.99Q4.62 8.30 5.11 8.60Q5.60 8.90 6.20 9.20Q6.79 9.49 7.36 9.76L7.36 9.76Q8.08 10.09 8.60 10.38Q9.11 10.67 9.45 11.01Q9.79 11.35 9.95 11.79Q10.12 12.22 10.12 12.84L10.12 12.84Q10.12 13.55 9.88 14.18Q9.65 14.80 9.19 15.26Q8.74 15.72 8.09 15.98Q7.45 16.24 6.65 16.24L6.65 16.24Q5.87 16.24 4.96 16.00Q4.05 15.76 3.25 15.35Q2.46 14.94 1.94 14.40Q1.41 13.86 1.41 13.26L1.41 13.26Q1.41 12.98 1.57 12.54Q1.74 12.11 2.16 11.63L2.16 11.63Q2.20 12.05 2.61 12.63Q3.02 13.20 3.85 13.69L3.85 13.69Q4.62 14.14 5.44 14.34Q6.26 14.55 6.97 14.55L6.97 14.55Q7.76 14.55 8.25 14.35Q8.74 14.15 9.02 13.88Q9.30 13.61 9.41 13.33Q9.52 13.05 9.53 12.88L9.53 12.88Q9.52 12.60 9.28 12.34Q9.03 12.08 8.62 11.84Q8.20 11.59 7.66 11.34Q7.11 11.09 6.52 10.84L6.52 10.84Q5.64 10.44 5.00 10.10Q4.37 9.76 3.96 9.40Q3.54 9.04 3.35 8.65Q3.16 8.26 3.16 7.76L3.16 7.76Q3.16 6.97 3.64 6.27Q4.12 5.57 5.01 5.21L5.01 5.21Q5.46 5.01 5.97 4.93Q6.48 4.84 6.97 4.84L6.97 4.84Q7.90 4.84 8.78 5.10Q9.66 5.35 10.54 5.74ZM24.02 9.21L24.02 9.21Q24.49 9.21 24.74 9.46Q25.00 9.72 25.00 10.16L25.00 10.16Q25.00 10.28 24.98 10.39Q24.96 10.51 24.93 10.60L24.93 10.60Q24.75 10.57 24.53 10.55Q24.30 10.53 24.00 10.53L24.00 10.53Q23.39 10.53 22.78 10.63Q22.16 10.74 21.60 10.81L21.60 10.81Q21.28 11.55 21.01 12.24Q20.75 12.94 20.56 13.51Q20.37 14.08 20.27 14.50Q20.16 14.92 20.15 15.13L20.15 15.13Q21.28 14.90 22.43 14.73Q23.59 14.56 24.86 14.48L24.86 14.48Q25.02 14.71 25.12 14.99Q25.23 15.27 25.23 15.60L25.23 15.60Q25.23 15.68 25.23 15.78Q25.23 15.88 25.20 15.97L25.20 15.97Q24.81 15.96 24.37 15.95Q23.94 15.95 23.24 15.95L23.24 15.95Q22.78 15.95 22.36 15.97Q21.95 15.99 21.53 16.03Q21.11 16.07 20.64 16.14Q20.17 16.21 19.59 16.31L19.59 16.31Q18.94 16.06 18.34 15.08L18.34 15.08Q18.58 14.57 19.00 13.54Q19.43 12.52 20.09 10.79L20.09 10.79Q19.46 10.60 19.26 10.09L19.26 10.09Q19.33 10.02 19.67 9.92Q20.01 9.81 20.50 9.70L20.50 9.70Q20.71 9.16 20.85 8.75Q21 8.34 21.11 7.99Q21.22 7.63 21.31 7.29Q21.41 6.94 21.49 6.54L21.49 6.54Q21 6.51 20.72 6.27Q20.44 6.02 20.44 5.63L20.44 5.63Q20.44 5.52 20.48 5.36Q20.51 5.21 20.55 5.10L20.55 5.10Q20.83 5.14 21.09 5.15Q21.35 5.17 21.77 5.17L21.77 5.17Q22.65 5.17 23.42 5.12Q24.19 5.07 24.81 5.01Q25.44 4.96 25.89 4.91Q26.33 4.86 26.57 4.86L26.57 4.86Q26.89 4.86 27.15 5.19Q27.40 5.53 27.52 6.15L27.52 6.15Q27.09 6.10 26.82 6.09Q26.54 6.08 26.33 6.08L26.33 6.08Q25.56 6.08 24.93 6.15Q24.29 6.23 23.70 6.31L23.70 6.31Q23.62 6.44 23.51 6.64Q23.41 6.83 23.24 7.18Q23.07 7.53 22.83 8.06Q22.58 8.60 22.23 9.39L22.23 9.39Q22.76 9.31 23.23 9.26Q23.70 9.21 24.02 9.21ZM41.38 10.72L41.38 10.72Q41.75 10.72 41.96 10.98Q42.17 11.23 42.17 11.68L42.17 11.68Q42.17 11.79 42.15 11.91Q42.14 12.03 42.11 12.11L42.11 12.11Q41.82 12.04 41.47 12.03L41.47 12.03Q41.38 12.64 41.02 13.32Q40.66 14 40.14 14.60Q39.62 15.19 39.00 15.64Q38.39 16.09 37.79 16.24L37.79 16.24Q35.91 16.20 35.05 15.27Q34.19 14.34 34.19 12.36L34.19 12.36Q34.19 10.92 34.72 9.57Q35.25 8.22 36.13 7.17Q37.02 6.12 38.16 5.48Q39.30 4.84 40.53 4.84L40.53 4.84Q41.50 4.84 42.03 5.25Q42.57 5.66 42.57 6.40L42.57 6.40Q42.57 6.89 42.34 7.31Q42.11 7.73 41.58 8.22L41.58 8.22Q41.26 8.12 41.02 7.88Q40.78 7.63 40.73 7.31L40.73 7.31Q41.20 6.96 41.40 6.66Q41.59 6.37 41.59 5.96L41.59 5.96Q41.59 5.32 40.82 5.32L40.82 5.32Q40.19 5.32 39.47 5.79Q38.75 6.26 38.02 7.14L38.02 7.14Q36.99 8.39 36.51 9.71Q36.04 11.03 36.04 12.68L36.04 12.68Q36.04 13.30 36.16 13.80Q36.29 14.31 36.50 14.69Q36.71 15.06 36.99 15.29Q37.28 15.51 37.62 15.54L37.62 15.54Q38.07 15.44 38.51 15.09Q38.96 14.73 39.33 14.25Q39.70 13.76 39.96 13.21Q40.22 12.66 40.28 12.15L40.28 12.15Q39.89 12.24 39.53 12.31Q39.17 12.39 38.85 12.39L38.85 12.39Q38.43 12.39 38.11 12.18Q37.80 11.97 37.69 11.61L37.69 11.61Q37.94 11.47 38.42 11.31Q38.91 11.16 39.45 11.03Q40.00 10.89 40.52 10.81Q41.05 10.72 41.38 10.72ZM55.10 5.75L55.10 5.75Q54.49 6.58 53.98 7.57Q53.48 8.57 53.12 9.61Q52.77 10.65 52.58 11.67Q52.39 12.68 52.39 13.57L52.39 13.57Q52.39 14.66 52.71 15.15Q53.03 15.64 53.82 15.64L53.82 15.64Q54.73 15.64 55.41 15.00Q56.10 14.36 56.70 13.24L56.70 13.24Q57.09 12.52 57.37 11.65Q57.65 10.78 57.83 9.86Q58.00 8.95 58.09 8.02Q58.17 7.08 58.17 6.23L58.17 6.23Q58.17 5.68 58.16 5.43Q58.14 5.18 58.11 5.03L58.11 5.03Q58.16 5.03 58.32 5.05Q58.49 5.08 58.71 5.12Q58.93 5.17 59.14 5.24Q59.36 5.31 59.51 5.39L59.51 5.39Q59.44 6.45 59.26 7.59Q59.07 8.72 58.76 9.83Q58.45 10.93 58.04 11.96Q57.64 12.98 57.13 13.79L57.13 13.79Q56.39 14.99 55.47 15.67Q54.54 16.35 53.28 16.35L53.28 16.35Q52.00 16.35 51.28 15.60Q50.57 14.85 50.57 13.33L50.57 13.33Q50.57 12.45 50.76 11.33Q50.96 10.22 51.29 9.07Q51.62 7.91 52.05 6.81Q52.49 5.71 52.96 4.84L52.96 4.84Q53.20 4.86 53.52 4.94Q53.84 5.03 54.15 5.16Q54.46 5.29 54.72 5.45Q54.98 5.61 55.10 5.75ZM76.01 7.46L76.01 7.46Q76.01 8.13 75.70 8.73Q75.40 9.32 74.87 9.79Q74.34 10.26 73.63 10.58Q72.91 10.91 72.07 11.02L72.07 11.02Q72.28 11.65 72.58 12.31Q72.88 12.98 73.23 13.59Q73.58 14.21 73.96 14.73Q74.34 15.25 74.70 15.58L74.70 15.58Q74.63 15.72 74.50 15.86Q74.37 16.00 74.19 16.12Q74.02 16.24 73.83 16.32Q73.64 16.39 73.47 16.39L73.47 16.39Q73.16 16.39 72.88 16.10Q72.60 15.81 72.32 15.17Q72.03 14.53 71.72 13.52Q71.40 12.50 71.02 11.07L71.02 11.07Q70.87 11.07 70.71 11.07Q70.56 11.07 70.48 11.05L70.48 11.05Q70.38 10.99 70.27 10.85L70.27 10.85Q69.89 11.66 69.59 12.38Q69.30 13.09 69.07 13.76Q68.84 14.42 68.66 15.04Q68.49 15.67 68.36 16.31L68.36 16.31Q67.89 16.20 67.54 15.90Q67.19 15.61 66.88 15.08L66.88 15.08Q66.93 14.95 67.00 14.83Q67.06 14.71 67.16 14.50Q67.26 14.28 67.40 13.94Q67.55 13.61 67.80 13.05Q68.04 12.49 68.38 11.68Q68.73 10.86 69.22 9.70L69.22 9.70Q69.44 9.18 69.60 8.79Q69.76 8.40 69.89 8.04Q70.01 7.69 70.12 7.33Q70.22 6.97 70.34 6.51L70.34 6.51Q69.69 6.73 69.14 7.01Q68.59 7.28 68.22 7.59L68.22 7.59Q68.10 7.50 67.96 7.34Q67.83 7.17 67.72 6.96Q67.61 6.76 67.52 6.55Q67.44 6.34 67.42 6.17L67.42 6.17Q67.84 5.89 68.45 5.66Q69.06 5.42 69.75 5.24Q70.43 5.07 71.15 4.97Q71.86 4.87 72.48 4.87L72.48 4.87Q74.16 4.87 75.08 5.56Q76.01 6.26 76.01 7.46ZM72.42 6.02L72.59 6.29Q72.49 6.41 72.28 6.79Q72.07 7.17 71.80 7.69Q71.53 8.22 71.23 8.83Q70.92 9.45 70.64 10.05L70.64 10.05Q71.69 10.05 72.58 9.86Q73.46 9.66 74.10 9.30Q74.75 8.95 75.10 8.46Q75.46 7.98 75.46 7.39L75.46 7.39Q75.46 6.69 74.96 6.32Q74.45 5.95 73.40 5.95L73.40 5.95Q73.16 5.95 72.93 5.97Q72.69 5.99 72.42 6.02L72.42 6.02ZM83.79 16.24L83.79 16.24Q83.12 16.04 82.86 15.85Q82.60 15.65 82.60 15.36L82.60 15.36Q82.60 15.13 82.73 14.73Q82.85 14.32 83.10 13.77Q83.34 13.22 83.69 12.54Q84.03 11.87 84.46 11.10L84.46 11.10Q84.10 11.09 83.81 11.08Q83.52 11.07 83.34 11.07L83.34 11.07Q83.43 10.86 83.82 10.71Q84.21 10.56 84.85 10.44L84.85 10.44Q85.40 9.53 86.02 8.71Q86.65 7.88 87.28 7.19Q87.91 6.50 88.54 5.97Q89.17 5.45 89.74 5.14L89.74 5.14Q89.75 5.04 89.76 4.97Q89.77 4.90 89.77 4.87L89.77 4.87Q89.96 4.87 90.29 4.97Q90.62 5.07 90.94 5.21Q91.25 5.35 91.50 5.49Q91.74 5.64 91.77 5.74L91.77 5.74Q91.31 6.55 90.86 8.17Q90.41 9.79 90.12 12.04L90.12 12.04Q90.05 12.60 90.00 13.31Q89.95 14.03 89.95 14.91L89.95 14.91Q89.95 15.22 89.95 15.54Q89.95 15.86 89.98 16.21L89.98 16.21Q89.95 16.23 89.92 16.23Q89.89 16.23 89.81 16.23L89.81 16.23Q89.61 16.23 89.36 16.16Q89.10 16.10 88.85 16.01Q88.61 15.92 88.43 15.81Q88.26 15.69 88.21 15.61L88.21 15.61Q88.20 15.43 88.20 15.25Q88.20 15.08 88.20 14.88L88.20 14.88Q88.20 14.01 88.26 13.12Q88.33 12.22 88.48 11.27L88.48 11.27Q88.28 11.26 87.96 11.23Q87.64 11.21 87.24 11.20Q86.84 11.19 86.39 11.16Q85.93 11.14 85.50 11.13L85.50 11.13Q85.16 11.76 84.87 12.38Q84.57 13.01 84.36 13.64L84.36 13.64Q84.13 14.31 83.98 14.98Q83.83 15.65 83.79 16.24ZM89.19 7.83L89.19 7.83Q89.25 7.63 89.33 7.29Q89.40 6.94 89.47 6.57L89.47 6.57Q89.12 6.69 88.70 7.03Q88.27 7.36 87.82 7.86Q87.36 8.36 86.89 8.98Q86.42 9.60 85.99 10.30L85.99 10.30Q87.16 10.21 88.66 10.18L88.66 10.18Q88.77 9.59 88.91 9.01Q89.04 8.43 89.19 7.83ZM100.39 16.24L100.39 16.24Q99.60 16.00 99.32 15.79Q99.04 15.57 99.04 15.19L99.04 15.19Q99.04 14.77 99.23 14.01Q99.43 13.24 99.74 12.31Q100.06 11.37 100.46 10.35Q100.87 9.32 101.29 8.39Q101.71 7.45 102.11 6.67Q102.51 5.89 102.82 5.46L102.82 5.46L102.72 4.87Q102.91 4.87 103.26 4.97Q103.61 5.07 103.97 5.21Q104.33 5.35 104.60 5.49Q104.87 5.64 104.90 5.74L104.90 5.74Q104.83 6.08 104.79 6.76Q104.75 7.43 104.75 8.20L104.75 8.20Q104.75 9.73 104.87 11.19Q104.99 12.66 105.42 14.17L105.42 14.17Q105.64 13.05 105.90 11.94Q106.16 10.82 106.44 9.81Q106.72 8.79 107.00 7.92Q107.28 7.06 107.54 6.40Q107.80 5.75 108.02 5.38Q108.25 5.01 108.43 4.98L108.43 4.98Q108.58 5.01 108.77 5.10Q108.95 5.19 109.12 5.32Q109.28 5.45 109.42 5.60Q109.56 5.75 109.65 5.91L109.65 5.91Q109.20 6.09 108.76 6.76Q108.32 7.43 107.92 8.39Q107.52 9.35 107.18 10.47Q106.83 11.59 106.58 12.68Q106.32 13.76 106.17 14.69Q106.02 15.61 106.01 16.17L106.01 16.17Q106.01 16.20 106.02 16.21L106.02 16.21Q105.98 16.23 105.93 16.23Q105.88 16.23 105.84 16.23L105.84 16.23Q105.20 16.23 104.70 16.07Q104.20 15.90 104.05 15.61L104.05 15.61Q103.75 14.43 103.56 13.34Q103.36 12.25 103.23 11.16Q103.10 10.07 103.02 8.95Q102.94 7.84 102.90 6.62L102.90 6.62Q102.63 7.04 102.34 7.72Q102.05 8.40 101.77 9.21Q101.49 10.02 101.23 10.92Q100.97 11.82 100.77 12.67Q100.58 13.52 100.46 14.29Q100.35 15.05 100.35 15.61L100.35 15.61Q100.35 15.90 100.36 16.03Q100.37 16.16 100.39 16.24ZM116.28 12.43L116.28 12.43Q116.28 11.45 116.52 10.51Q116.75 9.56 117.17 8.71Q117.59 7.87 118.17 7.16Q118.75 6.45 119.44 5.94Q120.13 5.42 120.92 5.13Q121.70 4.84 122.53 4.84L122.53 4.84Q123.49 4.84 124.03 5.25Q124.57 5.66 124.57 6.38L124.57 6.38Q124.57 6.66 124.50 6.96Q124.42 7.25 124.27 7.54Q124.12 7.83 123.93 8.09Q123.73 8.36 123.49 8.55L123.49 8.55Q123.13 8.50 122.86 8.22Q122.60 7.95 122.53 7.59L122.53 7.59Q123.02 7.18 123.31 6.74Q123.59 6.30 123.59 5.94L123.59 5.94Q123.59 5.32 122.82 5.32L122.82 5.32Q122.50 5.32 122.16 5.45Q121.81 5.59 121.46 5.82Q121.11 6.06 120.79 6.40Q120.46 6.73 120.18 7.14L120.18 7.14Q118.23 9.94 118.23 12.87L118.23 12.87Q118.23 13.90 118.55 14.53Q118.87 15.16 119.41 15.27L119.41 15.27Q120.01 15.13 120.93 14.50Q121.86 13.87 122.95 12.87L122.95 12.87Q123.09 13.01 123.12 13.16L123.12 13.16Q122.71 13.69 122.28 14.18Q121.84 14.67 121.42 15.08Q120.99 15.48 120.58 15.79Q120.16 16.10 119.81 16.27L119.81 16.27Q119.62 16.51 119.48 16.74Q119.35 16.97 119.28 17.16L119.28 17.16Q119.41 17.09 119.60 17.03Q119.78 16.97 119.98 16.91Q120.18 16.86 120.37 16.83Q120.55 16.80 120.68 16.80L120.68 16.80Q120.74 16.80 120.88 16.89Q121.02 16.98 121.15 17.09Q121.28 17.21 121.39 17.32Q121.49 17.43 121.49 17.49L121.49 17.49Q121.49 17.58 121.32 17.79Q121.16 18.00 120.90 18.26Q120.64 18.51 120.32 18.79Q119.99 19.07 119.70 19.29Q119.41 19.52 119.16 19.66Q118.92 19.81 118.80 19.81L118.80 19.81Q118.78 19.81 118.73 19.75Q118.68 19.68 118.63 19.60Q118.58 19.52 118.55 19.43Q118.51 19.35 118.51 19.31L118.51 19.31Q118.83 19.04 119.07 18.82Q119.31 18.59 119.50 18.38Q119.70 18.17 119.87 17.93Q120.04 17.70 120.22 17.40L120.22 17.40Q120.11 17.43 119.90 17.48Q119.69 17.53 119.46 17.61Q119.22 17.68 118.99 17.76Q118.76 17.84 118.59 17.89L118.59 17.89Q118.55 17.86 118.52 17.82Q118.50 17.77 118.48 17.72L118.48 17.72Q118.55 17.53 118.80 17.11Q119.04 16.69 119.36 16.24L119.36 16.24Q117.84 16.09 117.06 15.13Q116.28 14.18 116.28 12.43ZM131.74 16.24L131.74 16.24Q131.07 16.04 130.81 15.85Q130.55 15.65 130.55 15.36L130.55 15.36Q130.55 15.13 130.68 14.73Q130.80 14.32 131.05 13.77Q131.29 13.22 131.64 12.54Q131.98 11.87 132.41 11.10L132.41 11.10Q132.05 11.09 131.76 11.08Q131.47 11.07 131.29 11.07L131.29 11.07Q131.38 10.86 131.77 10.71Q132.16 10.56 132.80 10.44L132.80 10.44Q133.35 9.53 133.97 8.71Q134.60 7.88 135.23 7.19Q135.86 6.50 136.49 5.97Q137.12 5.45 137.69 5.14L137.69 5.14Q137.70 5.04 137.71 4.97Q137.72 4.90 137.72 4.87L137.72 4.87Q137.91 4.87 138.24 4.97Q138.57 5.07 138.89 5.21Q139.20 5.35 139.45 5.49Q139.69 5.64 139.72 5.74L139.72 5.74Q139.26 6.55 138.81 8.17Q138.36 9.79 138.07 12.04L138.07 12.04Q138.00 12.60 137.95 13.31Q137.90 14.03 137.90 14.91L137.90 14.91Q137.90 15.22 137.90 15.54Q137.90 15.86 137.93 16.21L137.93 16.21Q137.90 16.23 137.87 16.23Q137.84 16.23 137.76 16.23L137.76 16.23Q137.56 16.23 137.31 16.16Q137.05 16.10 136.80 16.01Q136.56 15.92 136.38 15.81Q136.21 15.69 136.16 15.61L136.16 15.61Q136.15 15.43 136.15 15.25Q136.15 15.08 136.15 14.88L136.15 14.88Q136.15 14.01 136.21 13.12Q136.28 12.22 136.43 11.27L136.43 11.27Q136.23 11.26 135.91 11.23Q135.59 11.21 135.19 11.20Q134.79 11.19 134.34 11.16Q133.88 11.14 133.45 11.13L133.45 11.13Q133.11 11.76 132.82 12.38Q132.52 13.01 132.31 13.64L132.31 13.64Q132.08 14.31 131.93 14.98Q131.78 15.65 131.74 16.24ZM137.14 7.83L137.14 7.83Q137.20 7.63 137.28 7.29Q137.35 6.94 137.42 6.57L137.42 6.57Q137.07 6.69 136.65 7.03Q136.22 7.36 135.77 7.86Q135.31 8.36 134.84 8.98Q134.37 9.60 133.94 10.30L133.94 10.30Q135.11 10.21 136.61 10.18L136.61 10.18Q136.72 9.59 136.86 9.01Q136.99 8.43 137.14 7.83ZM145.92 17.54L145.92 17.54Q145.84 17.47 145.77 17.31Q145.70 17.15 145.70 17.01L145.70 17.01Q146.40 16.41 146.70 15.86Q147.00 15.32 147.00 14.67L147.00 14.67Q147.00 14.25 146.97 13.95Q146.93 13.65 146.83 13.26L146.83 13.26Q147.18 13.29 147.53 13.38Q147.87 13.47 148.14 13.60Q148.41 13.73 148.60 13.91Q148.78 14.08 148.82 14.25L148.82 14.25Q148.16 16.58 145.92 17.54ZM168.36 12.43L168.36 12.43Q168.36 11.45 168.60 10.51Q168.83 9.56 169.25 8.71Q169.67 7.87 170.25 7.16Q170.83 6.45 171.52 5.94Q172.21 5.42 173.00 5.13Q173.78 4.84 174.61 4.84L174.61 4.84Q175.57 4.84 176.11 5.25Q176.65 5.66 176.65 6.38L176.65 6.38Q176.65 6.66 176.58 6.96Q176.50 7.25 176.35 7.54Q176.20 7.83 176.01 8.09Q175.81 8.36 175.57 8.55L175.57 8.55Q175.21 8.50 174.94 8.22Q174.68 7.95 174.61 7.59L174.61 7.59Q175.10 7.18 175.39 6.74Q175.67 6.30 175.67 5.94L175.67 5.94Q175.67 5.32 174.90 5.32L174.90 5.32Q174.58 5.32 174.24 5.45Q173.89 5.59 173.54 5.82Q173.19 6.06 172.87 6.40Q172.54 6.73 172.26 7.14L172.26 7.14Q170.31 9.94 170.31 12.87L170.31 12.87Q170.31 13.90 170.63 14.53Q170.95 15.16 171.49 15.27L171.49 15.27Q172.09 15.13 173.01 14.50Q173.94 13.87 175.03 12.87L175.03 12.87Q175.17 13.01 175.20 13.16L175.20 13.16Q174.79 13.69 174.36 14.18Q173.92 14.67 173.50 15.08Q173.07 15.48 172.66 15.79Q172.24 16.10 171.89 16.27L171.89 16.27Q170.16 16.24 169.26 15.27Q168.36 14.31 168.36 12.43ZM189.70 4.98L189.70 4.98Q189.97 5.10 190.25 5.27Q190.53 5.45 190.76 5.63Q191.00 5.81 191.16 5.98Q191.32 6.16 191.34 6.27L191.34 6.27Q191.10 6.22 190.86 6.20Q190.62 6.17 190.43 6.17L190.43 6.17Q189.80 6.17 189.18 6.48Q188.55 6.79 187.99 7.32Q187.43 7.85 186.96 8.57Q186.48 9.28 186.14 10.09Q185.79 10.91 185.60 11.77Q185.40 12.64 185.40 13.48L185.40 13.48Q185.40 14.57 185.77 15.11Q186.13 15.64 186.83 15.64L186.83 15.64Q187.17 15.64 187.56 15.51Q187.95 15.37 188.36 15.13Q188.76 14.90 189.15 14.56Q189.55 14.22 189.88 13.82L189.88 13.82Q190.37 13.23 190.76 12.48Q191.16 11.73 191.43 10.89Q191.70 10.05 191.85 9.16Q192.00 8.27 192.00 7.42L192.00 7.42Q192.00 7.08 191.98 6.85Q191.97 6.62 191.95 6.46Q191.93 6.30 191.91 6.20Q191.90 6.10 191.88 6.03L191.88 6.03Q192.05 6.12 192.26 6.24Q192.46 6.36 192.63 6.59Q192.81 6.82 192.93 7.20Q193.05 7.57 193.05 8.18L193.05 8.18Q193.05 9.16 192.82 10.10Q192.58 11.05 192.17 11.90Q191.76 12.75 191.20 13.50Q190.64 14.24 189.99 14.80L189.99 14.80Q189.15 15.54 188.20 15.95Q187.25 16.35 186.37 16.35L186.37 16.35Q185.08 16.35 184.40 15.53Q183.72 14.71 183.72 13.12L183.72 13.12Q183.72 12.26 183.91 11.31Q184.10 10.36 184.44 9.44Q184.79 8.51 185.26 7.68Q185.74 6.85 186.31 6.21Q186.87 5.57 187.52 5.19Q188.17 4.82 188.86 4.82L188.86 4.82Q189.08 4.82 189.28 4.85Q189.48 4.89 189.70 4.98ZM201.61 16.24L201.61 16.24Q200.82 16.00 200.54 15.79Q200.26 15.57 200.26 15.19L200.26 15.19Q200.26 14.77 200.45 14.01Q200.65 13.24 200.96 12.31Q201.28 11.37 201.68 10.35Q202.09 9.32 202.51 8.39Q202.93 7.45 203.33 6.67Q203.73 5.89 204.04 5.46L204.04 5.46L203.94 4.87Q204.13 4.87 204.48 4.97Q204.83 5.07 205.19 5.21Q205.55 5.35 205.82 5.49Q206.09 5.64 206.12 5.74L206.12 5.74Q206.05 6.08 206.01 6.76Q205.97 7.43 205.97 8.20L205.97 8.20Q205.97 9.73 206.09 11.19Q206.21 12.66 206.64 14.17L206.64 14.17Q206.86 13.05 207.12 11.94Q207.38 10.82 207.66 9.81Q207.94 8.79 208.22 7.92Q208.50 7.06 208.76 6.40Q209.02 5.75 209.24 5.38Q209.47 5.01 209.65 4.98L209.65 4.98Q209.80 5.01 209.99 5.10Q210.17 5.19 210.34 5.32Q210.50 5.45 210.64 5.60Q210.78 5.75 210.87 5.91L210.87 5.91Q210.42 6.09 209.98 6.76Q209.54 7.43 209.14 8.39Q208.74 9.35 208.40 10.47Q208.05 11.59 207.80 12.68Q207.54 13.76 207.39 14.69Q207.24 15.61 207.23 16.17L207.23 16.17Q207.23 16.20 207.24 16.21L207.24 16.21Q207.20 16.23 207.15 16.23Q207.10 16.23 207.06 16.23L207.06 16.23Q206.42 16.23 205.92 16.07Q205.42 15.90 205.27 15.61L205.27 15.61Q204.97 14.43 204.78 13.34Q204.58 12.25 204.45 11.16Q204.32 10.07 204.24 8.95Q204.16 7.84 204.12 6.62L204.12 6.62Q203.85 7.04 203.56 7.72Q203.27 8.40 202.99 9.21Q202.71 10.02 202.45 10.92Q202.19 11.82 201.99 12.67Q201.80 13.52 201.68 14.29Q201.57 15.05 201.57 15.61L201.57 15.61Q201.57 15.90 201.58 16.03Q201.59 16.16 201.61 16.24ZM222.80 9.34L222.80 9.34Q223.24 9.34 223.50 9.59Q223.76 9.84 223.76 10.29L223.76 10.29Q223.76 10.40 223.75 10.52Q223.73 10.64 223.69 10.72L223.69 10.72Q223.51 10.70 223.29 10.68Q223.06 10.65 222.75 10.65L222.75 10.65Q222.12 10.65 221.49 10.77Q220.86 10.88 220.29 10.95L220.29 10.95Q219.66 12.43 219.25 13.73Q218.85 15.04 218.62 16.31L218.62 16.31Q218.15 16.20 217.78 15.90Q217.42 15.61 217.10 15.08L217.10 15.08Q217.20 14.85 217.34 14.54Q217.48 14.22 217.67 13.74Q217.87 13.26 218.14 12.56Q218.41 11.87 218.79 10.91L218.79 10.91Q218.20 10.71 218.02 10.22L218.02 10.22Q218.09 10.15 218.41 10.06Q218.74 9.97 219.20 9.86L219.20 9.86Q219.41 9.31 219.56 8.88Q219.72 8.46 219.84 8.07Q219.97 7.69 220.07 7.32Q220.18 6.94 220.26 6.52L220.26 6.52L220.19 6.52Q219.66 6.52 219.33 6.27Q219.00 6.02 219.00 5.61L219.00 5.61Q219.00 5.50 219.04 5.35Q219.07 5.19 219.13 5.08L219.13 5.08Q219.39 5.12 219.65 5.14Q219.91 5.15 220.33 5.15L220.33 5.15Q221.21 5.15 221.98 5.10Q222.75 5.05 223.38 5.00Q224.00 4.94 224.45 4.89Q224.90 4.84 225.13 4.84L225.13 4.84Q225.46 4.84 225.71 5.18Q225.96 5.52 226.10 6.13L226.10 6.13Q225.65 6.09 225.38 6.08Q225.11 6.06 224.90 6.06L224.90 6.06Q224.18 6.06 223.59 6.13Q222.99 6.19 222.46 6.27L222.46 6.27Q222.38 6.40 222.27 6.59Q222.17 6.79 222.00 7.15Q221.83 7.50 221.57 8.08Q221.31 8.65 220.92 9.53L220.92 9.53Q221.47 9.45 221.96 9.39Q222.46 9.34 222.80 9.34ZM232.06 14.38L232.06 14.38Q232.06 13.87 232.23 13.07Q232.39 12.26 232.65 11.33Q232.90 10.40 233.24 9.43Q233.58 8.46 233.93 7.60Q234.28 6.75 234.61 6.10Q234.95 5.46 235.21 5.18L235.21 5.18Q235.35 5.19 235.59 5.29Q235.82 5.38 236.05 5.50Q236.29 5.63 236.49 5.78Q236.68 5.92 236.74 6.05L236.74 6.05Q236.33 6.41 235.94 7.15Q235.54 7.88 235.17 8.82Q234.79 9.76 234.47 10.80Q234.15 11.84 233.91 12.82Q233.67 13.80 233.54 14.64Q233.41 15.48 233.41 16.00L233.41 16.00Q233.41 16.24 233.45 16.30L233.45 16.30Q233.14 16.28 233.00 16.19Q232.86 16.10 232.79 16.00Q232.71 15.89 232.65 15.79Q232.58 15.68 232.46 15.62L232.46 15.62Q232.36 15.58 232.29 15.43Q232.22 15.27 232.17 15.09Q232.12 14.90 232.09 14.70Q232.06 14.50 232.06 14.38ZM243.68 16.24L243.68 16.24Q243.01 16.04 242.75 15.85Q242.49 15.65 242.49 15.36L242.49 15.36Q242.49 15.13 242.62 14.73Q242.75 14.32 242.99 13.77Q243.24 13.22 243.58 12.54Q243.92 11.87 244.36 11.10L244.36 11.10Q243.99 11.09 243.71 11.08Q243.42 11.07 243.24 11.07L243.24 11.07Q243.32 10.86 243.71 10.71Q244.10 10.56 244.75 10.44L244.75 10.44Q245.29 9.53 245.92 8.71Q246.54 7.88 247.17 7.19Q247.80 6.50 248.43 5.97Q249.06 5.45 249.63 5.14L249.63 5.14Q249.65 5.04 249.66 4.97Q249.66 4.90 249.66 4.87L249.66 4.87Q249.86 4.87 250.19 4.97Q250.52 5.07 250.83 5.21Q251.15 5.35 251.39 5.49Q251.64 5.64 251.66 5.74L251.66 5.74Q251.20 6.55 250.75 8.17Q250.31 9.79 250.01 12.04L250.01 12.04Q249.94 12.60 249.89 13.31Q249.84 14.03 249.84 14.91L249.84 14.91Q249.84 15.22 249.84 15.54Q249.84 15.86 249.87 16.21L249.87 16.21Q249.84 16.23 249.82 16.23Q249.79 16.23 249.70 16.23L249.70 16.23Q249.51 16.23 249.25 16.16Q248.99 16.10 248.75 16.01Q248.50 15.92 248.33 15.81Q248.15 15.69 248.11 15.61L248.11 15.61Q248.09 15.43 248.09 15.25Q248.09 15.08 248.09 14.88L248.09 14.88Q248.09 14.01 248.16 13.12Q248.22 12.22 248.37 11.27L248.37 11.27Q248.18 11.26 247.86 11.23Q247.53 11.21 247.14 11.20Q246.74 11.19 246.28 11.16Q245.83 11.14 245.39 11.13L245.39 11.13Q245.06 11.76 244.76 12.38Q244.47 13.01 244.26 13.64L244.26 13.64Q244.02 14.31 243.87 14.98Q243.73 15.65 243.68 16.24ZM249.09 7.83L249.09 7.83Q249.14 7.63 249.22 7.29Q249.30 6.94 249.37 6.57L249.37 6.57Q249.02 6.69 248.59 7.03Q248.16 7.36 247.71 7.86Q247.25 8.36 246.79 8.98Q246.32 9.60 245.88 10.30L245.88 10.30Q247.06 10.21 248.56 10.18L248.56 10.18Q248.67 9.59 248.80 9.01Q248.93 8.43 249.09 7.83ZM268.69 7.46L268.69 7.46Q268.69 8.33 268.21 9.01Q267.74 9.69 266.91 10.14L266.91 10.14Q267.44 10.50 267.76 11.03Q268.07 11.55 268.07 12.18L268.07 12.18Q268.07 12.94 267.62 13.67Q267.16 14.41 266.41 14.97Q265.65 15.54 264.68 15.89Q263.72 16.24 262.71 16.24L262.71 16.24Q261.62 16.24 260.80 15.83Q259.98 15.41 259.52 14.66L259.52 14.66Q259.66 14.24 259.89 13.62Q260.12 12.99 260.40 12.30Q260.68 11.61 260.97 10.92Q261.25 10.23 261.51 9.69L261.51 9.69Q262.04 8.50 262.46 7.71Q262.88 6.93 263.23 6.47L263.23 6.47Q262.46 6.71 261.83 7.01Q261.20 7.31 260.90 7.59L260.90 7.59Q260.78 7.50 260.65 7.34Q260.51 7.17 260.39 6.96Q260.27 6.76 260.20 6.55Q260.12 6.34 260.11 6.17L260.11 6.17Q260.47 5.92 261.05 5.69Q261.63 5.46 262.32 5.29Q263.00 5.12 263.73 5.03Q264.45 4.93 265.10 4.93L265.10 4.93Q266.78 4.93 267.74 5.60Q268.69 6.27 268.69 7.46ZM263.35 10.81L263.35 10.81Q263.09 10.68 262.86 10.43L262.86 10.43Q262.54 11.14 262.26 11.83Q261.97 12.52 261.74 13.10Q261.52 13.69 261.38 14.13Q261.24 14.56 261.23 14.76L261.23 14.76Q261.42 14.87 261.70 14.92Q261.97 14.98 262.37 14.98L262.37 14.98Q263.33 14.98 264.19 14.71Q265.06 14.45 265.72 13.99Q266.38 13.54 266.77 12.95Q267.16 12.36 267.16 11.72L267.16 11.72Q267.16 10.79 266.36 10.39L266.36 10.39Q265.27 10.84 263.90 10.84L263.90 10.84Q263.70 10.84 263.60 10.84Q263.49 10.84 263.35 10.81ZM266.07 5.95L266.07 5.95Q265.78 5.95 265.45 5.98Q265.12 6.02 264.75 6.09L264.75 6.09Q264.81 6.15 264.85 6.21Q264.88 6.27 264.91 6.34L264.91 6.34Q264.78 6.51 264.60 6.83Q264.42 7.15 264.19 7.58Q263.97 8.01 263.73 8.53Q263.48 9.04 263.23 9.59L263.23 9.59Q263.47 9.53 263.81 9.50Q264.15 9.46 264.49 9.46L264.49 9.46Q264.67 9.46 264.85 9.48Q265.02 9.49 265.19 9.52L265.19 9.52Q265.86 9.41 266.40 9.19Q266.94 8.97 267.33 8.69Q267.72 8.40 267.93 8.05Q268.14 7.70 268.14 7.31L268.14 7.31Q268.14 6.64 267.61 6.29Q267.08 5.95 266.07 5.95ZM276.53 14.38L276.53 14.38Q276.53 13.87 276.69 13.07Q276.85 12.26 277.11 11.33Q277.37 10.40 277.70 9.43Q278.04 8.46 278.39 7.60Q278.74 6.75 279.08 6.10Q279.41 5.46 279.68 5.18L279.68 5.18Q279.82 5.19 280.05 5.29Q280.28 5.38 280.52 5.50Q280.76 5.63 280.95 5.78Q281.15 5.92 281.20 6.05L281.20 6.05Q280.80 6.41 280.40 7.15Q280 7.88 279.63 8.82Q279.26 9.76 278.94 10.80Q278.61 11.84 278.38 12.82Q278.14 13.80 278.00 14.64Q277.87 15.48 277.87 16.00L277.87 16.00Q277.87 16.24 277.91 16.30L277.91 16.30Q277.61 16.28 277.47 16.19Q277.33 16.10 277.25 16.00Q277.17 15.89 277.11 15.79Q277.05 15.68 276.92 15.62L276.92 15.62Q276.82 15.58 276.75 15.43Q276.68 15.27 276.63 15.09Q276.58 14.90 276.56 14.70Q276.53 14.50 276.53 14.38ZM292.73 14.38L292.73 14.38Q293.08 14.98 293.08 15.54L293.08 15.54Q293.08 15.67 293.06 15.77Q293.03 15.88 293.01 15.99L293.01 15.99Q292.77 15.96 292.51 15.95Q292.25 15.93 291.97 15.93L291.97 15.93Q291.63 15.93 291.29 15.95Q290.95 15.97 290.53 16.02Q290.11 16.06 289.59 16.13Q289.07 16.20 288.39 16.31L288.39 16.31Q288.06 16.20 287.74 15.87Q287.42 15.54 287.14 15.08L287.14 15.08Q287.28 14.77 287.49 14.31Q287.70 13.86 287.98 13.21Q288.26 12.56 288.60 11.68Q288.95 10.81 289.34 9.66L289.34 9.66Q289.59 8.90 289.77 8.33Q289.95 7.76 290.10 7.22Q290.25 6.68 290.39 6.09Q290.53 5.50 290.70 4.73L290.70 4.73Q291.26 4.84 291.67 5.14Q292.08 5.45 292.46 6.01L292.46 6.01Q292.35 6.19 292.17 6.59Q291.98 7 291.74 7.58Q291.49 8.16 291.20 8.90Q290.91 9.63 290.58 10.47L290.58 10.47Q290.28 11.30 289.98 12.03Q289.69 12.75 289.46 13.34Q289.23 13.93 289.09 14.35Q288.95 14.77 288.95 14.98L288.95 14.98Q289.17 14.97 289.35 14.95Q289.53 14.94 289.73 14.90Q289.93 14.87 290.16 14.82Q290.39 14.77 290.71 14.69L290.71 14.69Q290.99 14.62 291.23 14.57Q291.47 14.52 291.70 14.48Q291.93 14.45 292.17 14.43Q292.42 14.41 292.73 14.38ZM301.69 14.38L301.69 14.38Q301.69 13.87 301.85 13.07Q302.01 12.26 302.27 11.33Q302.53 10.40 302.86 9.43Q303.20 8.46 303.55 7.60Q303.90 6.75 304.23 6.10Q304.57 5.46 304.84 5.18L304.84 5.18Q304.98 5.19 305.21 5.29Q305.44 5.38 305.68 5.50Q305.91 5.63 306.11 5.78Q306.31 5.92 306.36 6.05L306.36 6.05Q305.96 6.41 305.56 7.15Q305.16 7.88 304.79 8.82Q304.42 9.76 304.09 10.80Q303.77 11.84 303.53 12.82Q303.30 13.80 303.16 14.64Q303.03 15.48 303.03 16.00L303.03 16.00Q303.03 16.24 303.07 16.30L303.07 16.30Q302.76 16.28 302.62 16.19Q302.48 16.10 302.41 16.00Q302.33 15.89 302.27 15.79Q302.20 15.68 302.08 15.62L302.08 15.62Q301.98 15.58 301.91 15.43Q301.84 15.27 301.79 15.09Q301.74 14.90 301.71 14.70Q301.69 14.50 301.69 14.38ZM313.61 14.45L313.61 14.45Q313.82 13.99 314.12 13.26Q314.41 12.53 314.73 11.68Q315.06 10.84 315.39 9.95Q315.73 9.06 316.02 8.26Q316.32 7.46 316.53 6.83Q316.75 6.20 316.85 5.87L316.85 5.87Q315.97 6.23 315.34 6.97Q314.71 7.71 314.38 8.83L314.38 8.83Q314.06 8.72 313.80 8.43Q313.53 8.15 313.45 7.71L313.45 7.71Q313.59 7.07 313.97 6.54Q314.36 6.01 314.94 5.63Q315.53 5.25 316.30 5.05Q317.07 4.84 317.95 4.84L317.95 4.84Q319.07 4.84 320.01 5.17Q320.95 5.50 321.62 6.09Q322.29 6.68 322.67 7.50Q323.05 8.33 323.05 9.34L323.05 9.34Q323.05 10.71 322.55 11.96Q322.04 13.20 321.18 14.15Q320.32 15.11 319.19 15.67Q318.05 16.24 316.81 16.24L316.81 16.24Q315.66 16.24 314.84 15.79Q314.02 15.33 313.61 14.45ZM318.56 5.54L318.56 5.54Q317.86 5.54 317.23 5.74L317.23 5.74Q317.84 5.96 318.25 6.21Q318.65 6.45 318.81 6.59L318.81 6.59Q318.70 6.75 318.48 7.14Q318.26 7.53 317.98 8.09Q317.69 8.65 317.37 9.32Q317.04 9.98 316.74 10.68L316.74 10.68Q315.94 12.46 315.58 13.48Q315.22 14.50 315.22 14.90L315.22 14.90Q315.42 14.97 315.70 14.99Q315.98 15.02 316.30 15.02L316.30 15.02Q317.44 15.02 318.45 14.50Q319.47 13.97 320.23 13.09Q320.99 12.21 321.43 11.04Q321.87 9.87 321.87 8.58L321.87 8.58Q321.87 7.14 320.98 6.34Q320.08 5.54 318.56 5.54ZM331.20 16.24L331.20 16.24Q330.53 16.04 330.27 15.85Q330.01 15.65 330.01 15.36L330.01 15.36Q330.01 15.13 330.13 14.73Q330.26 14.32 330.51 13.77Q330.75 13.22 331.09 12.54Q331.44 11.87 331.87 11.10L331.87 11.10Q331.51 11.09 331.22 11.08Q330.93 11.07 330.75 11.07L330.75 11.07Q330.83 10.86 331.23 10.71Q331.62 10.56 332.26 10.44L332.26 10.44Q332.81 9.53 333.43 8.71Q334.05 7.88 334.68 7.19Q335.31 6.50 335.94 5.97Q336.57 5.45 337.15 5.14L337.15 5.14Q337.16 5.04 337.17 4.97Q337.18 4.90 337.18 4.87L337.18 4.87Q337.37 4.87 337.70 4.97Q338.03 5.07 338.35 5.21Q338.66 5.35 338.91 5.49Q339.15 5.64 339.18 5.74L339.18 5.74Q338.72 6.55 338.27 8.17Q337.82 9.79 337.53 12.04L337.53 12.04Q337.46 12.60 337.41 13.31Q337.36 14.03 337.36 14.91L337.36 14.91Q337.36 15.22 337.36 15.54Q337.36 15.86 337.39 16.21L337.39 16.21Q337.36 16.23 337.33 16.23Q337.30 16.23 337.22 16.23L337.22 16.23Q337.02 16.23 336.76 16.16Q336.50 16.10 336.26 16.01Q336.01 15.92 335.84 15.81Q335.66 15.69 335.62 15.61L335.62 15.61Q335.61 15.43 335.61 15.25Q335.61 15.08 335.61 14.88L335.61 14.88Q335.61 14.01 335.67 13.12Q335.73 12.22 335.89 11.27L335.89 11.27Q335.69 11.26 335.37 11.23Q335.05 11.21 334.65 11.20Q334.25 11.19 333.80 11.16Q333.34 11.14 332.91 11.13L332.91 11.13Q332.57 11.76 332.28 12.38Q331.98 13.01 331.77 13.64L331.77 13.64Q331.53 14.31 331.39 14.98Q331.24 15.65 331.20 16.24ZM336.60 7.83L336.60 7.83Q336.66 7.63 336.74 7.29Q336.81 6.94 336.88 6.57L336.88 6.57Q336.53 6.69 336.11 7.03Q335.68 7.36 335.22 7.86Q334.77 8.36 334.30 8.98Q333.83 9.60 333.40 10.30L333.40 10.30Q334.57 10.21 336.07 10.18L336.07 10.18Q336.18 9.59 336.32 9.01Q336.45 8.43 336.60 7.83ZM347.49 14.45L347.49 14.45Q347.70 13.99 348.00 13.26Q348.29 12.53 348.61 11.68Q348.94 10.84 349.27 9.95Q349.61 9.06 349.90 8.26Q350.20 7.46 350.41 6.83Q350.63 6.20 350.73 5.87L350.73 5.87Q349.85 6.23 349.22 6.97Q348.59 7.71 348.26 8.83L348.26 8.83Q347.94 8.72 347.68 8.43Q347.41 8.15 347.33 7.71L347.33 7.71Q347.47 7.07 347.85 6.54Q348.24 6.01 348.82 5.63Q349.41 5.25 350.18 5.05Q350.95 4.84 351.83 4.84L351.83 4.84Q352.95 4.84 353.89 5.17Q354.83 5.50 355.50 6.09Q356.17 6.68 356.55 7.50Q356.93 8.33 356.93 9.34L356.93 9.34Q356.93 10.71 356.43 11.96Q355.92 13.20 355.06 14.15Q354.20 15.11 353.07 15.67Q351.93 16.24 350.69 16.24L350.69 16.24Q349.54 16.24 348.72 15.79Q347.90 15.33 347.49 14.45ZM352.44 5.54L352.44 5.54Q351.74 5.54 351.11 5.74L351.11 5.74Q351.72 5.96 352.13 6.21Q352.53 6.45 352.69 6.59L352.69 6.59Q352.58 6.75 352.36 7.14Q352.14 7.53 351.86 8.09Q351.57 8.65 351.25 9.32Q350.92 9.98 350.62 10.68L350.62 10.68Q349.82 12.46 349.46 13.48Q349.10 14.50 349.10 14.90L349.10 14.90Q349.30 14.97 349.58 14.99Q349.86 15.02 350.18 15.02L350.18 15.02Q351.32 15.02 352.33 14.50Q353.35 13.97 354.11 13.09Q354.87 12.21 355.31 11.04Q355.75 9.87 355.75 8.58L355.75 8.58Q355.75 7.14 354.86 6.34Q353.96 5.54 352.44 5.54ZM370.23 9.21L370.23 9.21Q370.69 9.21 370.95 9.46Q371.21 9.72 371.21 10.16L371.21 10.16Q371.21 10.28 371.19 10.39Q371.17 10.51 371.14 10.60L371.14 10.60Q370.96 10.57 370.73 10.55Q370.51 10.53 370.20 10.53L370.20 10.53Q369.60 10.53 368.98 10.63Q368.37 10.74 367.81 10.81L367.81 10.81Q367.49 11.55 367.22 12.24Q366.95 12.94 366.77 13.51Q366.58 14.08 366.47 14.50Q366.37 14.92 366.35 15.13L366.35 15.13Q367.49 14.90 368.64 14.73Q369.80 14.56 371.07 14.48L371.07 14.48Q371.22 14.71 371.33 14.99Q371.43 15.27 371.43 15.60L371.43 15.60Q371.43 15.68 371.43 15.78Q371.43 15.88 371.41 15.97L371.41 15.97Q371.01 15.96 370.58 15.95Q370.15 15.95 369.45 15.95L369.45 15.95Q368.98 15.95 368.57 15.97Q368.16 15.99 367.74 16.03Q367.32 16.07 366.85 16.14Q366.38 16.21 365.79 16.31L365.79 16.31Q365.15 16.06 364.55 15.08L364.55 15.08Q364.78 14.57 365.21 13.54Q365.64 12.52 366.30 10.79L366.30 10.79Q365.67 10.60 365.47 10.09L365.47 10.09Q365.54 10.02 365.88 9.92Q366.21 9.81 366.70 9.70L366.70 9.70Q366.91 9.16 367.06 8.75Q367.21 8.34 367.32 7.99Q367.43 7.63 367.52 7.29Q367.61 6.94 367.70 6.54L367.70 6.54Q367.21 6.51 366.93 6.27Q366.65 6.02 366.65 5.63L366.65 5.63Q366.65 5.52 366.68 5.36Q366.72 5.21 366.76 5.10L366.76 5.10Q367.04 5.14 367.30 5.15Q367.56 5.17 367.98 5.17L367.98 5.17Q368.86 5.17 369.63 5.12Q370.40 5.07 371.02 5.01Q371.64 4.96 372.09 4.91Q372.54 4.86 372.78 4.86L372.78 4.86Q373.10 4.86 373.35 5.19Q373.60 5.53 373.73 6.15L373.73 6.15Q373.30 6.10 373.02 6.09Q372.75 6.08 372.54 6.08L372.54 6.08Q371.77 6.08 371.13 6.15Q370.50 6.23 369.91 6.31L369.91 6.31Q369.82 6.44 369.72 6.64Q369.61 6.83 369.45 7.18Q369.28 7.53 369.03 8.06Q368.79 8.60 368.44 9.39L368.44 9.39Q368.97 9.31 369.44 9.26Q369.91 9.21 370.23 9.21ZM396.09 9.21L396.09 9.21Q396.55 9.21 396.81 9.46Q397.07 9.72 397.07 10.16L397.07 10.16Q397.07 10.28 397.05 10.39Q397.03 10.51 397.00 10.60L397.00 10.60Q396.82 10.57 396.59 10.55Q396.37 10.53 396.06 10.53L396.06 10.53Q395.46 10.53 394.84 10.63Q394.23 10.74 393.67 10.81L393.67 10.81Q393.34 11.55 393.08 12.24Q392.81 12.94 392.62 13.51Q392.43 14.08 392.33 14.50Q392.22 14.92 392.21 15.13L392.21 15.13Q393.34 14.90 394.50 14.73Q395.65 14.56 396.93 14.48L396.93 14.48Q397.08 14.71 397.19 14.99Q397.29 15.27 397.29 15.60L397.29 15.60Q397.29 15.68 397.29 15.78Q397.29 15.88 397.26 15.97L397.26 15.97Q396.87 15.96 396.44 15.95Q396.00 15.95 395.30 15.95L395.30 15.95Q394.84 15.95 394.43 15.97Q394.02 15.99 393.60 16.03Q393.18 16.07 392.71 16.14Q392.24 16.21 391.65 16.31L391.65 16.31Q391.01 16.06 390.40 15.08L390.40 15.08Q390.64 14.57 391.07 13.54Q391.50 12.52 392.15 10.79L392.15 10.79Q391.52 10.60 391.33 10.09L391.33 10.09Q391.40 10.02 391.73 9.92Q392.07 9.81 392.56 9.70L392.56 9.70Q392.77 9.16 392.92 8.75Q393.06 8.34 393.18 7.99Q393.29 7.63 393.38 7.29Q393.47 6.94 393.55 6.54L393.55 6.54Q393.06 6.51 392.78 6.27Q392.50 6.02 392.50 5.63L392.50 5.63Q392.50 5.52 392.54 5.36Q392.57 5.21 392.62 5.10L392.62 5.10Q392.90 5.14 393.16 5.15Q393.41 5.17 393.83 5.17L393.83 5.17Q394.72 5.17 395.49 5.12Q396.26 5.07 396.88 5.01Q397.50 4.96 397.95 4.91Q398.40 4.86 398.64 4.86L398.64 4.86Q398.96 4.86 399.21 5.19Q399.46 5.53 399.59 6.15L399.59 6.15Q399.15 6.10 398.88 6.09Q398.61 6.08 398.40 6.08L398.40 6.08Q397.63 6.08 396.99 6.15Q396.35 6.23 395.77 6.31L395.77 6.31Q395.68 6.44 395.58 6.64Q395.47 6.83 395.30 7.18Q395.14 7.53 394.89 8.06Q394.65 8.60 394.30 9.39L394.30 9.39Q394.83 9.31 395.30 9.26Q395.77 9.21 396.09 9.21ZM425.29 5.74L425.29 5.74Q425.33 5.98 425.36 6.07Q425.38 6.16 425.38 6.31L425.38 6.31Q425.38 6.78 425.17 7.18Q424.97 7.57 424.62 7.74L424.62 7.74Q424.34 7.36 423.93 7.09Q423.53 6.82 423.05 6.64Q422.56 6.47 422.04 6.38Q421.53 6.30 421.04 6.30L421.04 6.30Q420.55 6.30 420.12 6.38Q419.69 6.45 419.36 6.59Q419.03 6.72 418.85 6.92Q418.66 7.11 418.66 7.36L418.66 7.36Q418.70 7.67 419.03 7.99Q419.37 8.30 419.86 8.60Q420.35 8.90 420.95 9.20Q421.54 9.49 422.11 9.76L422.11 9.76Q422.83 10.09 423.35 10.38Q423.86 10.67 424.20 11.01Q424.54 11.35 424.70 11.79Q424.87 12.22 424.87 12.84L424.87 12.84Q424.87 13.55 424.63 14.18Q424.40 14.80 423.94 15.26Q423.49 15.72 422.84 15.98Q422.20 16.24 421.40 16.24L421.40 16.24Q420.62 16.24 419.71 16.00Q418.80 15.76 418.01 15.35Q417.21 14.94 416.69 14.40Q416.16 13.86 416.16 13.26L416.16 13.26Q416.16 12.98 416.33 12.54Q416.49 12.11 416.91 11.63L416.91 11.63Q416.95 12.05 417.36 12.63Q417.77 13.20 418.60 13.69L418.60 13.69Q419.37 14.14 420.19 14.34Q421.01 14.55 421.72 14.55L421.72 14.55Q422.51 14.55 423.00 14.35Q423.49 14.15 423.77 13.88Q424.05 13.61 424.16 13.33Q424.27 13.05 424.28 12.88L424.28 12.88Q424.27 12.60 424.03 12.34Q423.78 12.08 423.37 11.84Q422.95 11.59 422.41 11.34Q421.86 11.09 421.27 10.84L421.27 10.84Q420.39 10.44 419.76 10.10Q419.12 9.76 418.71 9.40Q418.29 9.04 418.10 8.65Q417.91 8.26 417.91 7.76L417.91 7.76Q417.91 6.97 418.39 6.27Q418.87 5.57 419.76 5.21L419.76 5.21Q420.21 5.01 420.72 4.93Q421.23 4.84 421.72 4.84L421.72 4.84Q422.65 4.84 423.53 5.10Q424.41 5.35 425.29 5.74ZM438.28 5.75L438.28 5.75Q437.67 6.58 437.16 7.57Q436.66 8.57 436.30 9.61Q435.95 10.65 435.76 11.67Q435.57 12.68 435.57 13.57L435.57 13.57Q435.57 14.66 435.89 15.15Q436.21 15.64 437.00 15.64L437.00 15.64Q437.91 15.64 438.59 15.00Q439.28 14.36 439.88 13.24L439.88 13.24Q440.27 12.52 440.55 11.65Q440.83 10.78 441.01 9.86Q441.18 8.95 441.27 8.02Q441.35 7.08 441.35 6.23L441.35 6.23Q441.35 5.68 441.34 5.43Q441.32 5.18 441.29 5.03L441.29 5.03Q441.34 5.03 441.50 5.05Q441.67 5.08 441.89 5.12Q442.11 5.17 442.32 5.24Q442.54 5.31 442.69 5.39L442.69 5.39Q442.62 6.45 442.44 7.59Q442.25 8.72 441.94 9.83Q441.63 10.93 441.22 11.96Q440.82 12.98 440.31 13.79L440.31 13.79Q439.57 14.99 438.65 15.67Q437.72 16.35 436.46 16.35L436.46 16.35Q435.18 16.35 434.46 15.60Q433.75 14.85 433.75 13.33L433.75 13.33Q433.75 12.45 433.94 11.33Q434.14 10.22 434.47 9.07Q434.80 7.91 435.23 6.81Q435.67 5.71 436.14 4.84L436.14 4.84Q436.38 4.86 436.70 4.94Q437.02 5.03 437.33 5.16Q437.64 5.29 437.90 5.45Q438.16 5.61 438.28 5.75ZM459.20 7.63L459.20 7.63Q459.20 8.40 458.81 9.10Q458.43 9.80 457.78 10.32Q457.13 10.85 456.25 11.16Q455.38 11.47 454.40 11.47L454.40 11.47Q454.05 11.47 453.85 11.38Q453.64 11.28 453.39 11.02L453.39 11.02Q452.69 12.54 452.25 13.82Q451.81 15.11 451.56 16.31L451.56 16.31Q451.02 16.18 450.69 15.87Q450.35 15.55 450.07 15.08L450.07 15.08Q450.21 14.81 450.41 14.38Q450.60 13.94 450.88 13.31Q451.16 12.67 451.54 11.78Q451.91 10.89 452.41 9.70L452.41 9.70Q452.63 9.16 452.80 8.75Q452.97 8.34 453.10 7.99Q453.22 7.63 453.33 7.28Q453.43 6.93 453.54 6.51L453.54 6.51Q452.89 6.72 452.33 7Q451.78 7.28 451.42 7.59L451.42 7.59Q451.29 7.50 451.16 7.34Q451.02 7.17 450.91 6.96Q450.80 6.76 450.72 6.55Q450.63 6.34 450.62 6.17L450.62 6.17Q451.02 5.89 451.63 5.66Q452.23 5.42 452.91 5.24Q453.60 5.07 454.34 4.97Q455.07 4.87 455.74 4.87L455.74 4.87Q456.54 4.87 457.18 5.07Q457.83 5.28 458.28 5.64Q458.72 6.01 458.96 6.51Q459.20 7.01 459.20 7.63ZM456.71 5.95L456.71 5.95Q456.18 5.95 455.62 6.03L455.62 6.03L455.78 6.29Q455.64 6.47 455.43 6.83Q455.22 7.20 454.97 7.71Q454.72 8.22 454.42 8.85Q454.12 9.48 453.78 10.18L453.78 10.18Q454.87 10.18 455.77 9.97Q456.67 9.77 457.30 9.41Q457.94 9.06 458.30 8.58Q458.65 8.11 458.65 7.56L458.65 7.56Q458.65 6.83 458.16 6.39Q457.67 5.95 456.71 5.95ZM472.11 4.98L472.11 4.98Q472.37 5.10 472.65 5.27Q472.93 5.45 473.17 5.63Q473.41 5.81 473.57 5.98Q473.73 6.16 473.75 6.27L473.75 6.27Q473.51 6.22 473.27 6.20Q473.03 6.17 472.84 6.17L472.84 6.17Q472.21 6.17 471.58 6.48Q470.96 6.79 470.40 7.32Q469.84 7.85 469.36 8.57Q468.89 9.28 468.55 10.09Q468.20 10.91 468.01 11.77Q467.81 12.64 467.81 13.48L467.81 13.48Q467.81 14.57 468.17 15.11Q468.54 15.64 469.24 15.64L469.24 15.64Q469.57 15.64 469.97 15.51Q470.36 15.37 470.76 15.13Q471.17 14.90 471.56 14.56Q471.95 14.22 472.29 13.82L472.29 13.82Q472.78 13.23 473.17 12.48Q473.56 11.73 473.84 10.89Q474.11 10.05 474.26 9.16Q474.40 8.27 474.40 7.42L474.40 7.42Q474.40 7.08 474.39 6.85Q474.38 6.62 474.36 6.46Q474.33 6.30 474.32 6.20Q474.31 6.10 474.29 6.03L474.29 6.03Q474.46 6.12 474.66 6.24Q474.87 6.36 475.04 6.59Q475.22 6.82 475.34 7.20Q475.45 7.57 475.45 8.18L475.45 8.18Q475.45 9.16 475.22 10.10Q474.99 11.05 474.58 11.90Q474.17 12.75 473.61 13.50Q473.05 14.24 472.40 14.80L472.40 14.80Q471.56 15.54 470.61 15.95Q469.66 16.35 468.78 16.35L468.78 16.35Q467.49 16.35 466.81 15.53Q466.13 14.71 466.13 13.12L466.13 13.12Q466.13 12.26 466.32 11.31Q466.51 10.36 466.85 9.44Q467.19 8.51 467.67 7.68Q468.15 6.85 468.71 6.21Q469.28 5.57 469.93 5.19Q470.58 4.82 471.27 4.82L471.27 4.82Q471.49 4.82 471.69 4.85Q471.88 4.89 472.11 4.98ZM492.30 7.46L492.30 7.46Q492.30 8.13 492.00 8.73Q491.69 9.32 491.16 9.79Q490.63 10.26 489.92 10.58Q489.20 10.91 488.36 11.02L488.36 11.02Q488.57 11.65 488.87 12.31Q489.17 12.98 489.52 13.59Q489.87 14.21 490.25 14.73Q490.63 15.25 490.99 15.58L490.99 15.58Q490.92 15.72 490.79 15.86Q490.66 16.00 490.48 16.12Q490.31 16.24 490.12 16.32Q489.93 16.39 489.76 16.39L489.76 16.39Q489.45 16.39 489.17 16.10Q488.89 15.81 488.61 15.17Q488.32 14.53 488.00 13.52Q487.69 12.50 487.31 11.07L487.31 11.07Q487.16 11.07 487.00 11.07Q486.85 11.07 486.77 11.05L486.77 11.05Q486.67 10.99 486.56 10.85L486.56 10.85Q486.18 11.66 485.88 12.38Q485.59 13.09 485.36 13.76Q485.13 14.42 484.95 15.04Q484.78 15.67 484.65 16.31L484.65 16.31Q484.18 16.20 483.83 15.90Q483.48 15.61 483.17 15.08L483.17 15.08Q483.22 14.95 483.29 14.83Q483.35 14.71 483.45 14.50Q483.55 14.28 483.69 13.94Q483.84 13.61 484.09 13.05Q484.33 12.49 484.67 11.68Q485.02 10.86 485.51 9.70L485.51 9.70Q485.73 9.18 485.89 8.79Q486.05 8.40 486.18 8.04Q486.30 7.69 486.41 7.33Q486.51 6.97 486.63 6.51L486.63 6.51Q485.98 6.73 485.43 7.01Q484.88 7.28 484.51 7.59L484.51 7.59Q484.39 7.50 484.25 7.34Q484.12 7.17 484.01 6.96Q483.90 6.76 483.81 6.55Q483.73 6.34 483.71 6.17L483.71 6.17Q484.13 5.89 484.74 5.66Q485.35 5.42 486.04 5.24Q486.72 5.07 487.44 4.97Q488.15 4.87 488.77 4.87L488.77 4.87Q490.45 4.87 491.37 5.56Q492.30 6.26 492.30 7.46ZM488.71 6.02L488.88 6.29Q488.78 6.41 488.57 6.79Q488.36 7.17 488.09 7.69Q487.82 8.22 487.52 8.83Q487.21 9.45 486.93 10.05L486.93 10.05Q487.98 10.05 488.87 9.86Q489.75 9.66 490.39 9.30Q491.04 8.95 491.39 8.46Q491.75 7.98 491.75 7.39L491.75 7.39Q491.75 6.69 491.25 6.32Q490.74 5.95 489.69 5.95L489.69 5.95Q489.45 5.95 489.22 5.97Q488.98 5.99 488.71 6.02L488.71 6.02ZM501.65 6.69L501.65 6.69Q501.09 6.69 500.79 6.38Q500.49 6.06 500.49 5.61L500.49 5.61Q500.49 5.50 500.52 5.35Q500.56 5.19 500.61 5.08L500.61 5.08Q500.79 5.17 501.15 5.20Q501.51 5.24 501.98 5.24L501.98 5.24Q502.70 5.24 503.60 5.17Q504.50 5.11 505.33 5.04Q506.16 4.97 506.79 4.91Q507.42 4.84 507.60 4.84L507.60 4.84Q508.12 4.84 508.35 5.23Q508.58 5.61 508.69 6.26L508.69 6.26Q508.33 6.23 507.97 6.21Q507.61 6.19 507.36 6.19L507.36 6.19Q506.91 6.19 506.46 6.22Q506.00 6.24 505.54 6.30L505.54 6.30Q505.34 6.71 505.11 7.26Q504.87 7.81 504.64 8.41Q504.41 9.02 504.20 9.61Q503.99 10.21 503.83 10.68L503.83 10.68Q503.52 11.61 503.29 12.39Q503.06 13.17 502.89 13.85Q502.71 14.53 502.59 15.15Q502.46 15.76 502.36 16.35L502.36 16.35Q501.42 16.21 500.79 15.18L500.79 15.18Q500.91 14.74 501.07 14.23Q501.23 13.72 501.44 13.07Q501.66 12.42 501.96 11.59Q502.25 10.77 502.63 9.72L502.63 9.72Q502.77 9.32 502.92 8.90Q503.08 8.47 503.22 8.05Q503.37 7.63 503.49 7.24Q503.61 6.85 503.69 6.52L503.69 6.52Q503.10 6.59 502.58 6.64Q502.05 6.69 501.65 6.69ZM519.89 9.21L519.89 9.21Q520.35 9.21 520.61 9.46Q520.87 9.72 520.87 10.16L520.87 10.16Q520.87 10.28 520.85 10.39Q520.83 10.51 520.80 10.60L520.80 10.60Q520.62 10.57 520.39 10.55Q520.17 10.53 519.86 10.53L519.86 10.53Q519.26 10.53 518.64 10.63Q518.03 10.74 517.47 10.81L517.47 10.81Q517.15 11.55 516.88 12.24Q516.61 12.94 516.42 13.51Q516.24 14.08 516.13 14.50Q516.03 14.92 516.01 15.13L516.01 15.13Q517.15 14.90 518.30 14.73Q519.46 14.56 520.73 14.48L520.73 14.48Q520.88 14.71 520.99 14.99Q521.09 15.27 521.09 15.60L521.09 15.60Q521.09 15.68 521.09 15.78Q521.09 15.88 521.07 15.97L521.07 15.97Q520.67 15.96 520.24 15.95Q519.81 15.95 519.11 15.95L519.11 15.95Q518.64 15.95 518.23 15.97Q517.82 15.99 517.40 16.03Q516.98 16.07 516.51 16.14Q516.04 16.21 515.45 16.31L515.45 16.31Q514.81 16.06 514.21 15.08L514.21 15.08Q514.44 14.57 514.87 13.54Q515.30 12.52 515.96 10.79L515.96 10.79Q515.33 10.60 515.13 10.09L515.13 10.09Q515.20 10.02 515.54 9.92Q515.87 9.81 516.36 9.70L516.36 9.70Q516.57 9.16 516.72 8.75Q516.87 8.34 516.98 7.99Q517.09 7.63 517.18 7.29Q517.27 6.94 517.36 6.54L517.36 6.54Q516.87 6.51 516.59 6.27Q516.31 6.02 516.31 5.63L516.31 5.63Q516.31 5.52 516.34 5.36Q516.38 5.21 516.42 5.10L516.42 5.10Q516.70 5.14 516.96 5.15Q517.22 5.17 517.64 5.17L517.64 5.17Q518.52 5.17 519.29 5.12Q520.06 5.07 520.68 5.01Q521.30 4.96 521.75 4.91Q522.20 4.86 522.44 4.86L522.44 4.86Q522.76 4.86 523.01 5.19Q523.26 5.53 523.39 6.15L523.39 6.15Q522.96 6.10 522.68 6.09Q522.41 6.08 522.20 6.08L522.20 6.08Q521.43 6.08 520.79 6.15Q520.16 6.23 519.57 6.31L519.57 6.31Q519.48 6.44 519.38 6.64Q519.27 6.83 519.11 7.18Q518.94 7.53 518.69 8.06Q518.45 8.60 518.10 9.39L518.10 9.39Q518.63 9.31 519.10 9.26Q519.57 9.21 519.89 9.21Z"></path></g></svg>