<svg data-v-423bf9ae="" xmlns="http://www.w3.org/2000/svg" viewBox="0 0 288.8000052315848 60" class="font"><!----><!----><!----><g data-v-423bf9ae="" id="1f18da15-3ccd-4644-9f7d-85a0bb435099" fill="white" transform="matrix(5.714285714285714,0,0,5.714285714285714,-4.800001399857649,-41.37142726353237)"><path d="M2.47 8.61L2.47 11.53L4.16 11.53Q4.85 11.53 5.35 10.99L5.35 10.99Q5.75 10.58 5.75 9.91L5.75 9.91Q5.75 8.61 4.16 8.61L4.16 8.61L2.47 8.61ZM2.47 12.93L2.47 16.22L4.22 16.22Q5.18 16.22 5.58 15.77L5.58 15.77Q5.91 15.39 5.91 14.66L5.91 14.66Q5.91 14.05 5.46 13.51L5.46 13.51Q4.97 12.93 4.22 12.93L4.22 12.93L2.47 12.93ZM4.22 17.60L0.84 17.60L0.84 7.24L4.17 7.24Q5.63 7.24 6.45 7.96L6.45 7.96Q7.23 8.65 7.23 9.71L7.23 9.71Q7.23 11.47 5.96 11.96L5.96 11.96Q5.74 12.04 5.45 12.11L5.45 12.11Q6.31 12.28 6.87 12.94L6.87 12.94Q7.46 13.64 7.46 14.79L7.46 14.79Q7.46 16.41 6.44 17.09L6.44 17.09Q5.65 17.60 4.22 17.60L4.22 17.60ZM9.79 15.74L9.79 15.74Q9.79 16.14 9.99 16.32Q10.19 16.50 10.48 16.50Q10.77 16.50 10.92 16.47Q11.07 16.43 11.21 16.37L11.21 16.37L11.46 16.24Q11.57 16.17 11.71 16.06L11.71 16.06L11.91 15.91Q11.96 15.86 12.09 15.75L12.09 15.75L12.21 15.63L12.21 13.95Q10.68 14.30 10.21 14.71L10.21 14.71Q9.79 15.08 9.79 15.74ZM13.88 17.60L12.41 17.60Q12.21 17.47 12.21 16.96L12.21 16.96L12.08 17.11Q11.49 17.74 10.40 17.74L10.40 17.74Q9.07 17.74 8.58 16.80L8.58 16.80Q8.33 16.34 8.33 15.73Q8.33 15.12 8.54 14.65Q8.76 14.17 9.24 13.81L9.24 13.81Q10.12 13.15 12.21 12.74L12.21 12.74Q12.21 12.25 12.18 12.14Q12.15 12.03 12.11 11.94Q12.07 11.84 12.02 11.79Q11.96 11.74 11.88 11.68Q11.80 11.61 11.69 11.59L11.69 11.59Q11.42 11.52 11.10 11.52Q10.77 11.52 10.49 11.62Q10.21 11.72 10.04 11.84Q9.87 11.96 9.73 12.13L9.73 12.13Q9.56 12.35 9.48 12.51L9.48 12.51L8.52 11.92Q8.83 11.30 9.04 11.09Q9.26 10.88 9.47 10.73Q9.69 10.58 9.93 10.49L9.93 10.49Q10.50 10.28 11.09 10.28Q11.69 10.28 12.04 10.35Q12.39 10.41 12.71 10.58Q13.03 10.75 13.23 11.03L13.23 11.03Q13.67 11.63 13.67 12.80L13.67 12.80L13.67 16.58Q13.67 16.77 13.74 17.12Q13.82 17.47 13.88 17.60L13.88 17.60ZM14.67 14.04L14.67 14.04Q14.67 11.89 15.61 10.99L15.61 10.99Q16.34 10.26 17.67 10.26Q19.00 10.26 19.76 11.38L19.76 11.38Q20.00 11.74 20.10 12.06L20.10 12.06L18.86 12.61Q18.81 12.04 18.40 11.72L18.40 11.72Q18.13 11.50 17.73 11.50L17.73 11.50Q16.13 11.50 16.13 13.98L16.13 13.98Q16.13 15.20 16.55 15.84Q16.97 16.48 17.77 16.48L17.77 16.48Q18.33 16.48 18.68 16.07L18.68 16.07Q18.98 15.72 19.11 15.31L19.11 15.31L20.23 15.80Q20.08 16.41 19.56 16.96L19.56 16.96Q18.85 17.72 17.73 17.72L17.73 17.72Q14.67 17.72 14.67 14.04ZM22.98 17.60L21.52 17.60L21.52 7.24L22.98 7.24L22.98 13.07L25.06 10.38L26.84 10.38L24.75 13.05L26.96 17.60L25.31 17.60L23.73 14.34L22.98 15.29L22.98 17.60ZM31.61 15.65L31.61 12.20Q30.93 11.50 30.13 11.50L30.13 11.50Q29.30 11.50 28.94 12.22L28.94 12.22Q28.62 12.84 28.62 14.10L28.62 14.10Q28.62 15.49 29.07 16.02L29.07 16.02Q29.45 16.48 30.20 16.48L30.20 16.48Q30.99 16.48 31.51 15.78L31.51 15.78Q31.60 15.65 31.61 15.65L31.61 15.65ZM33.07 7.24L33.07 16.62Q33.07 17.10 33.26 17.60L33.26 17.60L31.72 17.60Q31.70 17.56 31.68 17.50L31.68 17.50L31.61 17.06Q31.09 17.72 30.09 17.72L30.09 17.72Q28.37 17.72 27.59 16.13L27.59 16.13Q27.15 15.24 27.15 14.12L27.15 14.12Q27.15 11.52 28.44 10.70L28.44 10.70Q29.12 10.26 30.19 10.26L30.19 10.26Q30.71 10.26 31.10 10.47Q31.49 10.68 31.61 10.86L31.61 10.86L31.61 7.24L33.07 7.24ZM35.44 13.16L35.44 13.16Q35.40 13.52 35.40 13.94Q35.40 14.36 35.44 14.69Q35.49 15.03 35.59 15.36Q35.70 15.70 35.86 15.94L35.86 15.94Q36.23 16.49 36.90 16.49L36.90 16.49Q38.38 16.49 38.38 13.99L38.38 13.99Q38.38 12.53 37.95 11.96L37.95 11.96Q37.59 11.50 36.90 11.50L36.90 11.50Q35.64 11.50 35.44 13.16ZM33.94 13.99L33.94 13.99Q33.94 12.28 34.73 11.27Q35.52 10.26 36.90 10.26L36.90 10.26Q37.82 10.26 38.49 10.73L38.49 10.73Q39.85 11.68 39.85 13.99L39.85 13.99Q39.85 16.88 38.04 17.54L38.04 17.54Q37.54 17.73 36.90 17.73Q36.26 17.73 35.76 17.54Q35.25 17.36 34.92 17.03Q34.58 16.70 34.36 16.22L34.36 16.22Q33.94 15.33 33.94 13.99ZM42.16 13.16L42.16 13.16Q42.12 13.52 42.12 13.94Q42.12 14.36 42.16 14.69Q42.20 15.03 42.30 15.36Q42.41 15.70 42.57 15.94L42.57 15.94Q42.94 16.49 43.61 16.49L43.61 16.49Q45.10 16.49 45.10 13.99L45.10 13.99Q45.10 12.53 44.66 11.96L44.66 11.96Q44.30 11.50 43.61 11.50L43.61 11.50Q42.35 11.50 42.16 13.16ZM40.65 13.99L40.65 13.99Q40.65 12.28 41.44 11.27Q42.23 10.26 43.61 10.26L43.61 10.26Q44.53 10.26 45.20 10.73L45.20 10.73Q46.56 11.68 46.56 13.99L46.56 13.99Q46.56 16.88 44.75 17.54L44.75 17.54Q44.26 17.73 43.62 17.73Q42.98 17.73 42.47 17.54Q41.97 17.36 41.63 17.03Q41.30 16.70 41.07 16.22L41.07 16.22Q40.65 15.33 40.65 13.99ZM49.18 17.60L47.71 17.60L47.71 10.38L49.18 10.38L49.18 11.38Q49.21 11.34 49.30 11.20L49.30 11.20L49.46 10.95Q49.97 10.26 51.13 10.26L51.13 10.26Q51.26 10.26 51.38 10.28L51.38 10.28L51.38 11.50Q50.13 11.53 49.59 12.20L49.59 12.20Q49.34 12.50 49.18 12.97L49.18 12.97L49.18 17.60Z"></path></g><!----><!----></svg>